<svg width="100" height="50" viewBox="0 0 100 50" fill="none" xmlns="http://www.w3.org/2000/svg">
<path d="M98.4066 36.6711C94.8567 36.6711 91.3069 36.6652 87.7571 36.6831C87.2913 36.6831 86.9808 36.5366 86.6642 36.2137C84.6275 34.121 82.5724 32.0461 80.5205 29.9653C75.418 24.7872 70.3156 19.6122 65.2131 14.4311C60.8169 9.96752 56.4208 5.50695 52.0337 1.03741L51.0169 0H41.2838L38.8392 2.86708C35.9165 6.26034 33.006 9.66257 30.0955 13.0648C29.6693 13.5641 29.2583 14.0783 28.7195 14.73H33.0852C32.8812 14.9842 32.7716 15.1396 32.6437 15.2801C26.1987 22.3806 19.7475 29.481 13.3085 36.5874C13.0041 36.9223 12.6966 37.0747 12.2278 37.0717C8.76623 37.0508 5.30471 37.0598 1.84319 37.0598C1.58441 37.0598 1.32563 37.0598 0.899414 37.0598C1.09426 37.275 1.16123 37.3588 1.23735 37.4365C5.21033 41.326 9.18332 45.2215 13.1715 49.0961C13.3603 49.2785 13.7134 49.3861 13.9905 49.3861C37.8406 49.3981 61.6937 49.4011 85.5438 49.3861C85.83 49.3861 86.1862 49.2367 86.3902 49.0393C90.354 45.2006 94.2996 41.347 98.2483 37.4963C98.4888 37.2601 98.7384 37.0359 99.122 36.6801C98.7445 36.6801 98.574 36.6801 98.4066 36.6801V36.6711ZM67.6395 37.0717C67.7552 37.1913 67.8587 37.3289 68.0292 37.5292H56.3507C58.3296 35.4394 60.2111 33.4513 62.1534 31.4004C64.044 33.3556 65.8433 35.2122 67.6395 37.0717ZM45.266 26.1147C47.2722 23.983 49.1628 21.968 51.1204 19.8872C53.1115 21.956 55.0508 23.9711 57.1149 26.1147H45.266ZM48.0942 33.8908C48.0729 35.6397 46.6177 37.0747 44.8824 37.0568C43.1349 37.0389 41.7344 35.5919 41.7527 33.822C41.7679 32.07 43.2384 30.6111 44.9524 30.644C46.6847 30.6769 48.1156 32.1538 48.0942 33.8908ZM35.0245 26.0339C35.0397 24.6587 35.816 23.8664 37.0643 23.9083C37.8619 23.9352 38.5195 24.4464 38.7417 25.2506C38.8209 25.5406 38.8544 25.8516 38.8544 26.1535C38.8635 29.2448 38.8635 32.3331 38.8635 35.4244C38.8635 36.4708 38.3947 37.2571 37.6214 37.5471C36.291 38.0434 35.0427 37.1046 35.0275 35.5679C35.0093 33.9804 35.0245 32.3899 35.0245 30.8024C35.0245 29.2149 35.0123 27.6244 35.0275 26.0369L35.0245 26.0339ZM25.3797 33.7562C25.4315 31.9863 26.9019 30.5812 28.6373 30.647C30.3726 30.7127 31.7639 32.2106 31.7121 33.9535C31.6604 35.6905 30.1777 37.0957 28.4333 37.0538C26.698 37.0149 25.328 35.5321 25.3797 33.7532V33.7562ZM89.2093 42.1302C87.7571 43.6281 86.2988 45.1199 84.8588 46.6267C84.5483 46.9526 84.2195 47.0841 83.7567 47.0841C61.3497 47.0722 38.9427 47.0722 16.5387 47.0841C16.0424 47.0841 15.7258 46.9227 15.4092 46.5669C13.89 44.8658 12.3404 43.1886 10.803 41.5024C10.6629 41.347 10.5411 41.1706 10.3798 40.9613H90.3145C89.8548 41.4486 89.5381 41.7924 89.2124 42.1302H89.2093Z" fill="#2E368F"/>
</svg>
